ply
format ascii 1.0
comment File exported by Rhinoceros Version 6.0
element vertex 24
property float x
property float y
property float z
element face 8
property list uchar uint vertex_index
end_header
110.6546 110.0119 0.5
110.6546 110.0119 5.190874
119.5 110.0119 0.5
119.5 110.0119 5.190874
119.5 110.0119 0.5
119.5 110.0119 5.190874
119.5 110.4661 0.5
119.5 110.4661 5.190874
119.5 110.4661 0.5
119.5 110.4661 5.190874
110.6546 110.4661 0.5
110.6546 110.4661 5.190874
110.6546 110.4661 0.5
110.6546 110.4661 5.190874
110.6546 110.0119 0.5
110.6546 110.0119 5.190874
110.6546 110.0119 0.5
119.5 110.0119 0.5
119.5 110.4661 0.5
110.6546 110.4661 0.5
110.6546 110.0119 5.190874
119.5 110.0119 5.190874
119.5 110.4661 5.190874
110.6546 110.4661 5.190874
4 0 2 3 1
4 4 6 7 5
4 8 10 11 9
4 12 14 15 13
3 17 16 19
3 19 18 17
3 21 23 20
3 23 21 22
