ply
format ascii 1.0
comment File exported by Rhinoceros Version 6.0
element vertex 224
property float x
property float y
property float z
element face 201
property list uchar uint vertex_index
end_header
-4.922721 3.481067E-06 -2.845437
-4.922721 3.481067E-06 2.845437
4.922722 3.481067E-06 -2.845437
4.922722 3.481067E-06 2.845437
-3.938179 3.481067E-06 -2.845437
-2.953636 3.481067E-06 -2.845437
-1.969085 3.481067E-06 -2.845437
-0.9845425 3.481067E-06 -2.845437
2.794099E-07 3.481067E-06 -2.845437
0.9845431 3.481067E-06 -2.845437
1.969086 3.481067E-06 -2.845437
2.953636 3.481067E-06 -2.845437
3.938179 3.481067E-06 -2.845437
4.922722 3.481067E-06 -1.896958
4.922722 3.481067E-06 -0.9484791
4.922722 3.481067E-06 -2.672204E-08
4.922722 3.481067E-06 0.9484789
4.922722 3.481067E-06 1.896958
3.938179 3.481067E-06 2.845437
2.953636 3.481067E-06 2.845437
1.969086 3.481067E-06 2.845437
0.9845431 3.481067E-06 2.845437
2.794099E-07 3.481067E-06 2.845437
-0.9845425 3.481067E-06 2.845437
-1.969085 3.481067E-06 2.845437
-2.953636 3.481067E-06 2.845437
-3.938179 3.481067E-06 2.845437
-4.922721 3.481067E-06 1.896958
-4.922721 3.481067E-06 0.9484789
-4.922721 3.481067E-06 -2.672204E-08
-4.922721 3.481067E-06 -0.9484791
-4.922721 3.481067E-06 -1.896958
-4.422721 3.481067E-06 2.345437
-3.439895 3.481067E-06 2.345437
-2.457069 3.481067E-06 2.345437
-1.474243 3.481067E-06 2.345437
-0.4914167 3.481067E-06 2.345437
0.4914172 3.481067E-06 2.345437
1.474243 3.481067E-06 2.345437
2.45707 3.481067E-06 2.345437
3.439896 3.481067E-06 2.345437
4.422722 3.481067E-06 2.345437
4.422722 3.481067E-06 1.407262
4.422722 3.481067E-06 0.4690873
4.422722 3.481067E-06 -0.4690874
4.422722 3.481067E-06 -1.407262
4.422722 3.481067E-06 -2.345437
3.439896 3.481067E-06 -2.345437
2.45707 3.481067E-06 -2.345437
1.474243 3.481067E-06 -2.345437
0.4914172 3.481067E-06 -2.345437
-0.4914167 3.481067E-06 -2.345437
-1.474243 3.481067E-06 -2.345437
-2.457069 3.481067E-06 -2.345437
-3.439895 3.481067E-06 -2.345437
-4.422721 3.481067E-06 -2.345437
-4.422721 3.481067E-06 -1.407262
-4.422721 3.481067E-06 -0.4690874
-4.422721 3.481067E-06 0.4690873
-4.422721 3.481067E-06 1.407262
4.922722 3.481067E-06 -2.845437
4.922722 3.481067E-06 2.845437
4.922722 10.59177 -2.845437
4.922722 10.59177 2.845437
4.922722 3.481067E-06 1.896958
4.922722 3.481067E-06 0.9484789
4.922722 3.481067E-06 -2.672204E-08
4.922722 3.481067E-06 -0.9484791
4.922722 3.481067E-06 -1.896958
4.922722 5.295887 2.845437
4.922722 5.295887 -2.845437
4.922722 5.295887 -2.672204E-08
4.922722 5.295887 1.422719
4.922722 2.647945 -2.672204E-08
4.922722 2.647945 1.422719
4.922722 5.295887 -1.422719
4.922722 2.647945 -1.422719
4.922722 10.59177 -2.845437
4.922722 10.59177 2.845437
-4.922721 10.59177 -2.845437
-4.922721 10.59177 2.845437
2.794099E-07 10.59177 -2.845437
2.794099E-07 10.59177 2.845437
-4.922721 10.59177 -2.845437
-4.922721 10.59177 2.845437
-4.922721 3.481067E-06 -2.845437
-4.922721 3.481067E-06 2.845437
-4.922721 3.481067E-06 -1.896958
-4.922721 3.481067E-06 -0.9484791
-4.922721 3.481067E-06 -2.672204E-08
-4.922721 3.481067E-06 0.9484789
-4.922721 3.481067E-06 1.896958
-4.922721 5.295887 2.845437
-4.922721 5.295887 -2.845437
-4.922721 5.295887 -2.672204E-08
-4.922721 2.647945 -2.672204E-08
-4.922721 5.295887 -1.422719
-4.922721 2.647945 -1.422719
-4.922721 5.295887 1.422719
-4.922721 2.647945 1.422719
-4.922721 3.481067E-06 -2.845437
-4.922721 10.59177 -2.845437
4.922722 3.481067E-06 -2.845437
4.922722 10.59177 -2.845437
-3.938179 3.481067E-06 -2.845437
-2.953636 3.481067E-06 -2.845437
-1.969085 3.481067E-06 -2.845437
-0.9845425 3.481067E-06 -2.845437
2.794099E-07 3.481067E-06 -2.845437
0.9845431 3.481067E-06 -2.845437
1.969086 3.481067E-06 -2.845437
2.953636 3.481067E-06 -2.845437
3.938179 3.481067E-06 -2.845437
4.922722 5.295887 -2.845437
2.794099E-07 10.59177 -2.845437
-4.922721 5.295887 -2.845437
2.794099E-07 5.295887 -2.845437
2.794099E-07 2.647945 -2.845437
-2.461365 5.295887 -2.845437
-2.461365 2.647945 -2.845437
2.461357 5.295887 -2.845437
2.461357 2.647945 -2.845437
-4.922721 3.481067E-06 2.845437
-4.922721 10.59177 2.845437
4.922722 3.481067E-06 2.845437
4.922722 10.59177 2.845437
-3.938179 3.481067E-06 2.845437
-2.953636 3.481067E-06 2.845437
-1.969085 3.481067E-06 2.845437
-0.9845425 3.481067E-06 2.845437
2.794099E-07 3.481067E-06 2.845437
0.9845431 3.481067E-06 2.845437
1.969086 3.481067E-06 2.845437
2.953636 3.481067E-06 2.845437
3.938179 3.481067E-06 2.845437
4.922722 5.295887 2.845437
2.794099E-07 10.59177 2.845437
-4.922721 5.295887 2.845437
2.794099E-07 5.295887 2.845437
2.794099E-07 2.647945 2.845437
-2.461365 5.295887 2.845437
-2.461365 2.647945 2.845437
2.461357 5.295887 2.845437
2.461357 2.647945 2.845437
-4.422721 3.481067E-06 2.345437
-4.422721 8.941982 2.345437
4.422722 3.481067E-06 2.345437
4.422722 8.941982 2.345437
2.794099E-07 8.941982 2.345437
-3.439895 3.481067E-06 2.345437
-2.457069 3.481067E-06 2.345437
-1.474243 3.481067E-06 2.345437
-0.4914167 3.481067E-06 2.345437
0.4914172 3.481067E-06 2.345437
1.474243 3.481067E-06 2.345437
2.45707 3.481067E-06 2.345437
3.439896 3.481067E-06 2.345437
4.422722 4.470989 2.345437
-4.422721 4.470989 2.345437
2.794099E-07 4.470989 2.345437
2.794099E-07 2.235492 2.345437
-2.211365 4.470989 2.345437
-2.211365 2.235492 2.345437
2.211357 4.470989 2.345437
2.211357 2.235492 2.345437
4.422722 3.481067E-06 2.345437
4.422722 8.941982 2.345437
4.422722 3.481067E-06 -2.345437
4.422722 8.941982 -2.345437
4.422722 3.481067E-06 1.407262
4.422722 3.481067E-06 0.4690873
4.422722 3.481067E-06 -0.4690874
4.422722 3.481067E-06 -1.407262
4.422722 4.470989 -2.345437
4.422722 4.470989 2.345437
4.422722 4.470989 -2.672204E-08
4.422722 2.235492 -2.672204E-08
4.422722 4.470989 1.172719
4.422722 2.235492 1.172719
4.422722 4.470989 -1.172719
4.422722 2.235492 -1.172719
4.422722 3.481067E-06 -2.345437
4.422722 8.941982 -2.345437
-4.422721 3.481067E-06 -2.345437
-4.422721 8.941982 -2.345437
2.794099E-07 8.941982 -2.345437
3.439896 3.481067E-06 -2.345437
2.45707 3.481067E-06 -2.345437
1.474243 3.481067E-06 -2.345437
0.4914172 3.481067E-06 -2.345437
-0.4914167 3.481067E-06 -2.345437
-1.474243 3.481067E-06 -2.345437
-2.457069 3.481067E-06 -2.345437
-3.439895 3.481067E-06 -2.345437
-4.422721 4.470989 -2.345437
4.422722 4.470989 -2.345437
2.794099E-07 4.470989 -2.345437
2.794099E-07 2.235492 -2.345437
2.211357 4.470989 -2.345437
2.211357 2.235492 -2.345437
-2.211365 4.470989 -2.345437
-2.211365 2.235492 -2.345437
-4.422721 3.481067E-06 -2.345437
-4.422721 8.941982 -2.345437
-4.422721 3.481067E-06 2.345437
-4.422721 8.941982 2.345437
-4.422721 3.481067E-06 -1.407262
-4.422721 3.481067E-06 -0.4690874
-4.422721 3.481067E-06 0.4690873
-4.422721 3.481067E-06 1.407262
-4.422721 4.470989 2.345437
-4.422721 4.470989 -2.345437
-4.422721 4.470989 -2.672204E-08
-4.422721 2.235492 -2.672204E-08
-4.422721 4.470989 -1.172719
-4.422721 2.235492 -1.172719
-4.422721 4.470989 1.172719
-4.422721 2.235492 1.172719
4.422722 8.941982 -2.345437
4.422722 8.941982 2.345437
-4.422721 8.941982 -2.345437
-4.422721 8.941982 2.345437
2.794099E-07 8.941982 2.345437
2.794099E-07 8.941982 -2.345437
3 55 0 4
3 31 0 55
4 30 31 55 56
4 56 57 29 30
4 54 55 4 5
4 5 6 53 54
4 7 8 51 52
4 6 7 52 53
4 28 29 58 59
3 58 29 57
3 32 1 27
4 59 32 27 28
3 26 1 32
4 33 34 24 25
4 35 36 22 23
4 34 35 23 24
4 25 26 32 33
3 50 51 8
4 9 10 48 49
4 10 11 47 48
4 49 50 8 9
4 11 12 46 47
3 2 46 12
3 46 2 13
4 45 46 13 14
3 14 44 45
3 44 14 15
3 15 43 44
4 37 38 21 22
4 38 39 20 21
4 19 20 39 40
3 37 22 36
4 42 43 15 16
4 16 17 41 42
4 18 19 40 41
3 18 41 3
3 17 3 41
4 72 74 73 71
4 71 73 76 75
3 76 68 60
3 73 66 67
3 68 76 67
3 76 60 70
4 65 66 73 74
3 64 74 61
3 74 64 65
3 73 67 76
3 70 75 76
3 70 62 75
3 62 71 75
3 69 72 63
3 71 63 72
3 74 72 69
3 63 71 62
3 61 74 69
4 78 77 81 82
4 79 80 82 81
4 99 98 94 95
4 95 94 96 97
3 96 83 93
3 93 97 96
3 97 93 85
3 94 83 96
3 98 84 94
3 83 94 84
3 84 98 92
3 98 99 92
3 97 87 88
3 85 87 97
4 95 97 88 89
4 99 95 89 90
3 99 90 91
3 99 91 86
3 92 99 86
4 116 117 119 118
4 120 121 117 116
3 119 104 100
3 119 106 105
3 119 107 106
3 119 105 104
3 118 115 101
3 100 115 119
3 119 115 118
3 117 107 119
3 109 108 117
3 114 118 101
3 117 108 107
3 121 110 109
3 121 112 111
3 121 102 112
3 121 111 110
3 120 116 114
3 118 114 116
3 103 113 120
3 121 120 113
3 114 103 120
3 113 102 121
3 109 117 121
4 138 140 141 139
4 142 138 139 143
3 141 122 126
3 141 127 128
3 141 128 129
3 141 126 127
3 140 123 137
3 122 141 137
3 141 140 137
3 139 141 129
3 131 139 130
3 136 123 140
3 139 129 130
3 143 131 132
3 143 133 134
3 143 134 124
3 143 132 133
3 142 136 138
3 140 138 136
3 125 142 135
3 143 135 142
3 136 142 125
3 135 143 124
3 131 143 139
4 159 160 162 161
4 163 164 160 159
3 162 149 144
3 162 151 150
3 160 152 151
3 162 150 149
3 161 158 145
3 151 162 160
3 148 161 145
3 158 161 162
3 162 144 158
3 160 153 152
4 164 154 153 160
3 164 156 155
3 164 146 156
3 164 155 154
3 163 159 148
3 161 148 159
3 147 157 163
3 164 163 157
3 148 147 163
3 157 146 164
4 175 176 178 177
4 179 180 176 175
3 178 169 165
4 176 170 169 178
3 174 178 165
3 177 174 166
3 175 177 166
3 178 174 177
3 176 171 170
4 171 176 180 172
3 180 167 172
3 173 167 180
3 168 179 175
3 179 168 173
3 173 180 179
3 166 168 175
4 196 197 199 198
4 200 201 197 196
3 199 186 181
3 199 188 187
3 197 189 188
3 199 187 186
3 198 195 182
3 188 199 197
3 185 198 182
3 195 198 199
3 199 181 195
3 197 190 189
4 201 191 190 197
3 201 193 192
3 201 183 193
3 201 192 191
3 200 196 185
3 198 185 196
3 184 194 200
3 201 200 194
3 185 184 200
3 194 183 201
4 212 213 215 214
4 216 217 213 212
3 215 206 202
4 213 207 206 215
3 211 215 202
3 214 211 203
3 212 214 203
3 215 211 214
3 213 208 207
3 209 208 217
3 217 204 209
3 210 204 217
3 205 216 212
3 216 205 210
3 210 217 216
3 203 205 212
3 208 213 217
4 219 222 223 218
4 220 223 222 221
